{"title":"Maroon 5 - Animals (Victorias Secret Swim Special) - 1080p","uid":11739961,"size":121782280,"categoryP":"video","categoryS":"music_videos","magnet":"?xt=urn:btih:6e0f3c2225eb4978553e66a07340b07d72f64ac5&amp;dn=Maroon+5+-+Animals+%28Victorias+Secret+Swim+Special%29+-+1080p&amp;tr=udp%3A%2F%2Ftracker.openbittorrent.com%3A80&amp;tr=udp%3A%2F%2Fopen.demonii.com%3A1337&amp;tr=udp%3A%2F%2Ftracker.coppersurfer.tk%3A6969&amp;tr=udp%3A%2F%2Fexodus.desync.com%3A6969","seeders":3,"leechers":1,"uploader":"MusicVideos-HQ","files":1,"time":1425746197,"description":"Capturas: http://imgur.com/DqcOjoA\n\nGeneral\nComplete name                  : C:UsersEliasVideosvid3Maroon5-Animals(VictoriasSecretSwimSpecial)-musicvideos-hq.net.mp4\nFormat                         : MPEG-4\nFormat profile                 : Base Media\nCodec ID                       : isom\nFile size                      : 116 MiB\nDuration                       : 3mn 53s\nOverall bit rate               : 4 166 Kbps\nWriting application            : Lavf55.33.100\n\nVideo\nID                             : 1\nFormat                         : AVC\nFormat/Info                    : Advanced Video Codec\nFormat profile                 : &lt;a class=&quot;__cf_email__&quot; href=&quot;/cdn-cgi/l/email-protection&quot; data-cfemail=&quot;6a22030d022a265e445a&quot;&gt;[email&amp;#160;protected]&lt;/a&gt;&lt;script cf-hash='f9e31' type=&quot;text/javascript&quot;&gt;\n/* &lt;![CDATA[ */!function(){try{var t=&quot;currentScript&quot;in document?document.currentScript:function(){for(var t=document.getElementsByTagName(&quot;script&quot;),e=t.length;e--;)if(t[e].getAttribute(&quot;cf-hash&quot;))return t[e]}();if(t&amp;&amp;t.previousSibling){var e,r,n,i,c=t.previousSibling,a=c.getAttribute(&quot;data-cfemail&quot;);if(a){for(e=&quot;&quot;,r=parseInt(a.substr(0,2),16),n=2;a.length-n;n+=2)i=parseInt(a.substr(n,2),16)^r,e+=String.fromCharCode(i);e=document.createTextNode(e),c.parentNode.replaceChild(e,c)}}}catch(u){}}();/* ]]&gt; */&lt;/script&gt;\nFormat settings, CABAC         : Yes\nFormat settings, ReFrames      : 2 frames\nCodec ID                       : avc1\nCodec ID/Info                  : Advanced Video Coding\nDuration                       : 3mn 53s\nBit rate                       : 3 907 Kbps\nWidth                          : 1 920 pixels\nHeight                         : 1 080 pixels\nDisplay aspect ratio           : 16:9\nFrame rate mode                : Variable\nFrame rate                     : 23.976 fps\nMinimum frame rate             : 23.974 fps\nMaximum frame rate             : 90 000.000 fps\nColor space                    : YUV\nChroma subsampling             : 4:2:0\nBit depth                      : 8 bits\nScan type                      : Progressive\nBits/(Pixel*Frame)             : 0.079\nStream size                    : 109 MiB (94%)\n\nAudio\nID                             : 2\nFormat                         : AAC\nFormat/Info                    : Advanced Audio Codec\nFormat profile                 : LC\nCodec ID                       : 40\nDuration                       : 3mn 53s\nBit rate mode                  : Constant\nBit rate                       : 254 Kbps\nChannel(s)                     : 2 channels\nChannel positions              : Front: L R\nSampling rate                  : 44.1 KHz\nCompression mode               : Lossy\nStream size                    : 7.07 MiB (6%)","torrent":{"xt":"urn:btih:6e0f3c2225eb4978553e66a07340b07d72f64ac5","amp;dn":"Maroon+5+-+Animals+%28Victorias+Secret+Swim+Special%29+-+1080p","amp;tr":["udp%3A%2F%2Ftracker.openbittorrent.com%3A80","udp%3A%2F%2Fopen.demonii.com%3A1337","udp%3A%2F%2Ftracker.coppersurfer.tk%3A6969","udp%3A%2F%2Fexodus.desync.com%3A6969"],"infoHash":"6e0f3c2225eb4978553e66a07340b07d72f64ac5","infoHashBuffer":{"type":"Buffer","data":[110,15,60,34,37,235,73,120,85,62,102,160,115,64,176,125,114,246,74,197]},"announce":[],"urlList":[]}}